# File Truc_9cm.obj
# Description:  Truc_9cm.obj
# Name:  Truc_9cm.obj
# Author:  
v -4.980 4.980 -112.050
v -4.980 4.980 -112.050
v -4.980 4.980 112.050
v -4.980 4.980 112.050
v -4.904 5.845 -112.050
v -4.904 5.845 -112.050
v -4.904 5.845 112.050
v -4.904 5.845 112.050
v -4.904 4.115 -112.050
v -4.904 4.115 -112.050
v -4.904 4.115 112.050
v -4.904 4.115 112.050
v -4.680 6.683 -112.050
v -4.680 6.683 -112.050
v -4.680 6.683 112.050
v -4.680 6.683 112.050
v -4.680 3.277 -112.050
v -4.680 3.277 -112.050
v -4.680 3.277 112.050
v -4.680 3.277 112.050
v -4.313 7.470 -112.050
v -4.313 7.470 -112.050
v -4.313 7.470 112.050
v -4.313 7.470 112.050
v -4.313 2.490 -112.050
v -4.313 2.490 -112.050
v -4.313 2.490 112.050
v -4.313 2.490 112.050
v -3.815 8.181 -112.050
v -3.815 8.181 -112.050
v -3.815 8.181 112.050
v -3.815 8.181 112.050
v -3.815 1.779 -112.050
v -3.815 1.779 -112.050
v -3.815 1.779 112.050
v -3.815 1.779 112.050
v -3.201 8.795 -112.050
v -3.201 8.795 -112.050
v -3.201 8.795 112.050
v -3.201 8.795 112.050
v -3.201 1.165 -112.050
v -3.201 1.165 -112.050
v -3.201 1.165 112.050
v -3.201 1.165 112.050
v -2.490 9.293 -112.050
v -2.490 9.293 -112.050
v -2.490 9.293 112.050
v -2.490 9.293 112.050
v -2.490 0.667 -112.050
v -2.490 0.667 -112.050
v -2.490 0.667 112.050
v -2.490 0.667 112.050
v -1.703 9.660 -112.050
v -1.703 9.660 -112.050
v -1.703 9.660 112.050
v -1.703 9.660 112.050
v -1.703 0.300 -112.050
v -1.703 0.300 -112.050
v -1.703 0.300 112.050
v -1.703 0.300 112.050
v -0.865 9.884 -112.050
v -0.865 9.884 -112.050
v -0.865 9.884 112.050
v -0.865 9.884 112.050
v -0.865 0.076 -112.050
v -0.865 0.076 -112.050
v -0.865 0.076 112.050
v -0.865 0.076 112.050
v 0.000 9.960 -112.050
v 0.000 9.960 -112.050
v 0.000 9.960 112.050
v 0.000 9.960 112.050
v 0.000 4.980 -112.050
v 0.000 4.980 112.050
v 0.000 0.000 -112.050
v 0.000 0.000 -112.050
v 0.000 0.000 112.050
v 0.000 0.000 112.050
v 0.865 9.884 -112.050
v 0.865 9.884 -112.050
v 0.865 9.884 112.050
v 0.865 9.884 112.050
v 0.865 0.076 -112.050
v 0.865 0.076 -112.050
v 0.865 0.076 112.050
v 0.865 0.076 112.050
v 1.703 9.660 -112.050
v 1.703 9.660 -112.050
v 1.703 9.660 112.050
v 1.703 9.660 112.050
v 1.703 0.300 -112.050
v 1.703 0.300 -112.050
v 1.703 0.300 112.050
v 1.703 0.300 112.050
v 2.490 9.293 -112.050
v 2.490 9.293 -112.050
v 2.490 9.293 112.050
v 2.490 9.293 112.050
v 2.490 0.667 -112.050
v 2.490 0.667 -112.050
v 2.490 0.667 112.050
v 2.490 0.667 112.050
v 3.201 8.795 -112.050
v 3.201 8.795 -112.050
v 3.201 8.795 112.050
v 3.201 8.795 112.050
v 3.201 1.165 -112.050
v 3.201 1.165 -112.050
v 3.201 1.165 112.050
v 3.201 1.165 112.050
v 3.815 8.181 -112.050
v 3.815 8.181 -112.050
v 3.815 8.181 112.050
v 3.815 8.181 112.050
v 3.815 1.779 -112.050
v 3.815 1.779 -112.050
v 3.815 1.779 112.050
v 3.815 1.779 112.050
v 4.313 7.470 -112.050
v 4.313 7.470 -112.050
v 4.313 7.470 112.050
v 4.313 7.470 112.050
v 4.313 2.490 -112.050
v 4.313 2.490 -112.050
v 4.313 2.490 112.050
v 4.313 2.490 112.050
v 4.680 6.683 -112.050
v 4.680 6.683 -112.050
v 4.680 6.683 112.050
v 4.680 6.683 112.050
v 4.680 3.277 -112.050
v 4.680 3.277 -112.050
v 4.680 3.277 112.050
v 4.680 3.277 112.050
v 4.904 5.845 -112.050
v 4.904 5.845 -112.050
v 4.904 5.845 112.050
v 4.904 5.845 112.050
v 4.904 4.115 -112.050
v 4.904 4.115 -112.050
v 4.904 4.115 112.050
v 4.904 4.115 112.050
v 4.980 4.980 -112.050
v 4.980 4.980 -112.050
v 4.980 4.980 112.050
v 4.980 4.980 112.050
f 141 74 134
f 141 145 74
f 145 138 74
f 118 74 110
f 118 125 74
f 125 134 74
f 94 74 86
f 94 102 74
f 102 110 74
f 67 74 60
f 67 78 74
f 78 86 74
f 44 74 36
f 44 52 74
f 52 60 74
f 19 74 11
f 19 28 74
f 28 36 74
f 8 74 16
f 8 4 74
f 4 11 74
f 32 74 39
f 32 23 74
f 23 16 74
f 56 74 63
f 56 47 74
f 47 39 74
f 82 74 89
f 82 71 74
f 71 63 74
f 106 74 114
f 106 98 74
f 98 89 74
f 130 74 138
f 130 121 74
f 121 114 74
f 136 73 128
f 136 144 73
f 144 139 73
f 111 73 104
f 111 120 73
f 120 128 73
f 87 73 80
f 87 96 73
f 96 104 73
f 62 73 54
f 62 69 73
f 69 80 73
f 37 73 29
f 37 46 73
f 46 54 73
f 13 73 5
f 13 22 73
f 22 29 73
f 10 73 18
f 10 2 73
f 2 5 73
f 34 73 42
f 34 26 73
f 26 18 73
f 58 73 65
f 58 50 73
f 50 42 73
f 83 73 92
f 83 75 73
f 75 65 73
f 107 73 115
f 107 100 73
f 100 92 73
f 131 73 139
f 131 124 73
f 124 115 73
f 135 137 146
f 135 127 137
f 127 129 137
f 127 119 129
f 119 122 129
f 119 112 122
f 112 113 122
f 112 103 113
f 103 105 113
f 103 95 105
f 95 97 105
f 95 88 97
f 88 90 97
f 88 79 90
f 79 81 90
f 79 70 81
f 70 72 81
f 70 61 72
f 61 64 72
f 61 53 64
f 53 55 64
f 53 45 55
f 45 48 55
f 45 38 48
f 38 40 48
f 38 30 40
f 30 31 40
f 30 21 31
f 21 24 31
f 21 14 24
f 14 15 24
f 14 6 15
f 6 7 15
f 6 1 7
f 1 3 7
f 1 9 3
f 9 12 3
f 9 17 12
f 17 20 12
f 17 25 20
f 25 27 20
f 25 33 27
f 33 35 27
f 33 41 35
f 41 43 35
f 41 49 43
f 49 51 43
f 49 57 51
f 57 59 51
f 57 66 59
f 66 68 59
f 66 76 68
f 76 77 68
f 76 84 77
f 84 85 77
f 84 91 85
f 91 93 85
f 91 99 93
f 99 101 93
f 99 108 101
f 108 109 101
f 108 116 109
f 116 117 109
f 116 123 117
f 123 126 117
f 123 132 126
f 132 133 126
f 132 140 133
f 140 142 133
f 140 143 142
f 143 146 142
f 143 135 146
